<svg height="23" fill="#f1f1f1" viewBox="0 0 1149 23" xmlns="http://www.w3.org/2000/svg">
  <path
    d="M1150,23c-9,0-13.7-4.6-17.5-8.3c-3.4-3.3-5.9-5.7-11.2-5.7c-5.4,0-7.8,2.4-11.2,5.7c-3.8,3.7-8.5,8.3-17.5,8.3s-13.7-4.6-17.5-8.3c-3.4-3.3-5.9-5.7-11.2-5.7s-7.8,2.4-11.2,5.7c-3.8,3.7-8.5,8.3-17.5,8.3s-13.7-4.6-17.5-8.3c-3.4-3.3-5.9-5.7-11.2-5.7c-5.4,0-7.8,2.4-11.2,5.7c-3.8,3.7-8.5,8.3-17.5,8.3s-13.7-4.6-17.5-8.3c-3.4-3.3-5.9-5.7-11.2-5.7c-5.4,0-7.8,2.4-11.2,5.7C933.7,18.4,929,23,920,23s-13.7-4.6-17.5-8.3c-3.4-3.3-5.9-5.7-11.2-5.7c-5.4,0-7.8,2.4-11.2,5.7c-3.8,3.7-8.5,8.3-17.5,8.3s-13.7-4.6-17.5-8.3c-3.4-3.3-5.9-5.7-11.2-5.7c-5.4,0-7.8,2.4-11.2,5.7C818.7,18.4,814,23,805,23c-9,0-13.7-4.6-17.5-8.3c-3.4-3.3-5.9-5.7-11.2-5.7c-5.4,0-7.8,2.4-11.2,5.7c-3.8,3.7-8.5,8.3-17.5,8.3c-9,0-13.7-4.6-17.5-8.3c-3.4-3.3-5.9-5.7-11.2-5.7s-7.8,2.4-11.2,5.7C703.8,18.4,699,23,690,23c-9,0-13.7-4.6-17.5-8.3c-3.4-3.3-5.9-5.7-11.2-5.7c-5.4,0-7.8,2.4-11.2,5.7c-3.8,3.7-8.5,8.3-17.5,8.3s-13.7-4.6-17.5-8.3c-3.4-3.3-5.9-5.7-11.2-5.7c-5.4,0-7.8,2.4-11.2,5.7c-3.8,3.7-8.5,8.3-17.5,8.3c-9,0-13.7-4.6-17.5-8.3c-3.4-3.3-5.9-5.7-11.2-5.7s-7.8,2.4-11.2,5.7c-3.8,3.7-8.5,8.3-17.5,8.3c-9,0-13.7-4.6-17.5-8.3c-3.4-3.3-5.9-5.7-11.2-5.7c-5.4,0-7.8,2.4-11.2,5.7c-3.8,3.7-8.5,8.3-17.5,8.3c-9,0-13.7-4.6-17.5-8.3c-3.4-3.3-5.9-5.7-11.2-5.7c-5.4,0-7.8,2.4-11.2,5.7c-3.8,3.7-8.5,8.3-17.5,8.3s-13.7-4.6-17.5-8.3c-3.4-3.3-5.9-5.7-11.2-5.7c-5.4,0-7.8,2.4-11.2,5.7c-3.8,3.7-8.5,8.3-17.5,8.3s-13.7-4.6-17.5-8.3c-3.4-3.3-5.9-5.7-11.2-5.7s-7.8,2.4-11.2,5.7c-3.8,3.7-8.5,8.3-17.5,8.3c-9,0-13.7-4.6-17.5-8.3c-3.4-3.3-5.9-5.7-11.2-5.7c-5.4,0-7.8,2.4-11.2,5.7c-3.8,3.7-8.5,8.3-17.5,8.3c-9,0-13.7-4.6-17.5-8.3c-3.4-3.3-5.9-5.7-11.2-5.7c-5.4,0-7.8,2.4-11.2,5.7c-3.8,3.7-8.5,8.3-17.5,8.3c-9,0-13.7-4.6-17.5-8.3c-3.4-3.3-5.9-5.7-11.2-5.7c-5.4,0-7.8,2.4-11.2,5.7C128.8,18.4,124,23,115,23c-9,0-13.7-4.6-17.5-8.3C94.1,11.4,91.6,9,86.3,9c-5.4,0-7.8,2.4-11.2,5.7c-3.8,3.7-8.5,8.3-17.5,8.3c-9,0-13.7-4.6-17.5-8.3C36.6,11.4,34.1,9,28.8,9c-5.4,0-7.8,2.4-11.2,5.7C13.7,18.4,9,23,0,23v-9c5.4,0,7.8-2.4,11.2-5.7C15,4.6,19.7,0,28.8,0c9,0,13.7,4.6,17.5,8.3c3.4,3.3,5.9,5.7,11.2,5.7c5.4,0,7.8-2.4,11.2-5.7C72.5,4.6,77.3,0,86.3,0c9,0,13.7,4.6,17.5,8.3c3.4,3.3,5.9,5.7,11.2,5.7c5.4,0,7.8-2.4,11.2-5.7c3.8-3.7,8.5-8.3,17.5-8.3c9,0,13.7,4.6,17.5,8.3c3.4,3.3,5.9,5.7,11.2,5.7c5.4,0,7.8-2.4,11.2-5.7c3.8-3.7,8.5-8.3,17.5-8.3c9,0,13.7,4.6,17.5,8.3c3.4,3.3,5.9,5.7,11.2,5.7c5.4,0,7.8-2.4,11.2-5.7c3.8-3.7,8.5-8.3,17.5-8.3c9,0,13.7,4.6,17.5,8.3c3.4,3.3,5.9,5.7,11.2,5.7c5.4,0,7.8-2.4,11.2-5.7c3.8-3.7,8.5-8.3,17.5-8.3c9,0,13.7,4.6,17.5,8.3c3.4,3.3,5.9,5.7,11.2,5.7c5.4,0,7.8-2.4,11.2-5.7c3.8-3.7,8.5-8.3,17.5-8.3c9,0,13.7,4.6,17.5,8.3c3.4,3.3,5.9,5.7,11.2,5.7s7.8-2.4,11.2-5.7c3.8-3.7,8.5-8.3,17.5-8.3c9,0,13.7,4.6,17.5,8.3c3.4,3.3,5.9,5.7,11.2,5.7c5.4,0,7.8-2.4,11.2-5.7c3.8-3.7,8.5-8.3,17.5-8.3c9,0,13.7,4.6,17.5,8.3c3.4,3.3,5.9,5.7,11.2,5.7c5.4,0,7.8-2.4,11.2-5.7c3.8-3.7,8.5-8.3,17.5-8.3c9,0,13.7,4.6,17.5,8.3c3.4,3.3,5.9,5.7,11.2,5.7c5.4,0,7.8-2.4,11.2-5.7c3.8-3.7,8.5-8.3,17.5-8.3c9,0,13.7,4.6,17.5,8.3c3.4,3.3,5.9,5.7,11.2,5.7c5.4,0,7.8-2.4,11.2-5.7c3.8-3.7,8.5-8.3,17.5-8.3s13.7,4.6,17.5,8.3c3.4,3.3,5.9,5.7,11.2,5.7c5.4,0,7.8-2.4,11.2-5.7c3.8-3.7,8.5-8.3,17.5-8.3c9,0,13.7,4.6,17.5,8.3c3.4,3.3,5.9,5.7,11.2,5.7c5.4,0,7.8-2.4,11.2-5.7c3.8-3.7,8.5-8.3,17.5-8.3c9,0,13.7,4.6,17.5,8.3c3.4,3.3,5.9,5.7,11.2,5.7c5.4,0,7.8-2.4,11.2-5.7C820,4.6,824.7,0,833.8,0c9,0,13.7,4.6,17.5,8.3c3.4,3.3,5.9,5.7,11.2,5.7s7.8-2.4,11.2-5.7c3.8-3.7,8.5-8.3,17.5-8.3c9,0,13.7,4.6,17.5,8.3c3.4,3.3,5.9,5.7,11.2,5.7s7.8-2.4,11.2-5.7C935,4.6,939.7,0,948.8,0s13.7,4.6,17.5,8.3c3.4,3.3,5.9,5.7,11.2,5.7s7.8-2.4,11.2-5.7c3.8-3.7,8.5-8.3,17.5-8.3s13.7,4.6,17.5,8.3c3.4,3.3,5.9,5.7,11.2,5.7c5.4,0,7.8-2.4,11.2-5.7c3.8-3.7,8.5-8.3,17.5-8.3s13.7,4.6,17.5,8.3c3.4,3.3,5.9,5.7,11.2,5.7s7.8-2.4,11.2-5.7c3.8-3.7,8.5-8.3,17.5-8.3s13.7,4.6,17.5,8.3c3.4,3.3,5.9,5.7,11.2,5.7V23z"/>
</svg>
